<?xml version="1.0" encoding="UTF-8" standalone="yes"?>
<svg width="96" height="96" viewBox="0 0 32 32" fill="none" xmlns="http://www.w3.org/2000/svg">
  <g id="social-share-whatsapp" clip-path="url(#clip0_706_437)">
    <g id="social-share-whatsapp_2">
      <path id="Vector" d="M16 0C7.164 0 0 7.164 0 16C0 24.838 7.164 32 16 32C24.837 32 32 24.838 32 16C32 7.164 24.837 0 16 0Z" fill="#25D366"/>
      <path id="Vector_2" d="M20.5936 17.8923C20.3576 17.7628 19.1971 17.1368 18.9786 17.0478C18.7616 16.9598 18.6026 16.9138 18.4331 17.1483C18.2636 17.3828 17.7821 17.9073 17.6361 18.0633C17.4896 18.2183 17.3486 18.2328 17.1121 18.1033C16.8766 17.9738 16.1106 17.6908 15.2221 16.8368C14.5311 16.1723 14.0776 15.3668 13.9461 15.1208C13.8146 14.8743 13.9451 14.7488 14.0701 14.6338C14.1826 14.5298 14.3216 14.3613 14.4471 14.2258C14.5721 14.0898 14.6166 13.9908 14.7026 13.8333C14.7886 13.6758 14.7541 13.5338 14.6981 13.4113C14.6426 13.2893 14.2056 12.0863 14.0231 11.5978C13.8406 11.1088 13.6376 11.1813 13.4971 11.1758C13.3571 11.1708 13.1971 11.1443 13.0371 11.1388C12.8761 11.1328 12.6131 11.1833 12.3841 11.4153C12.1541 11.6478 11.5111 12.2068 11.4666 13.3908C11.4221 14.5743 12.2416 15.7508 12.3556 15.9158C12.4701 16.0808 13.9201 18.6468 16.3296 19.7023C18.7396 20.7573 18.7521 20.4353 19.1946 20.4123C19.6366 20.3883 20.6396 19.8823 20.8611 19.3288C21.0826 18.7748 21.1006 18.2933 21.0441 18.1903C20.9876 18.0878 20.8301 18.0213 20.5941 17.8923H20.5936ZM16.1741 23.5973C14.5806 23.5973 13.0966 23.1193 11.8576 22.2998L8.84209 23.2648L9.82209 20.3513C8.84948 19.0147 8.32635 17.4038 8.32809 15.7508C8.32809 11.4238 11.8481 7.90383 16.1741 7.90383C20.5011 7.90383 24.0211 11.4238 24.0211 15.7508C24.0211 20.0773 20.5011 23.5973 16.1741 23.5973ZM16.1741 6.32483C10.9691 6.32483 6.74909 10.5448 6.74909 15.7508C6.74909 17.5313 7.24309 19.1968 8.10159 20.6178L6.40009 25.6748L11.6186 24.0043C13.013 24.7752 14.5807 25.1785 16.1741 25.1763C21.3801 25.1763 25.6001 20.9563 25.6001 15.7508C25.6001 10.5448 21.3801 6.32483 16.1741 6.32483Z" fill="white"/>
    </g>
  </g>
  <defs>
    <clipPath id="clip0_706_437">
      <rect width="32" height="32" fill="white"/>
    </clipPath>
  </defs>
</svg>