<?xml version="1.0" standalone="no"?>
<!DOCTYPE svg PUBLIC "-//W3C//DTD SVG 20010904//EN"
 "http://www.w3.org/TR/2001/REC-SVG-20010904/DTD/svg10.dtd">
<svg version="1.0" xmlns="http://www.w3.org/2000/svg"
 width="355.000000pt" height="355.000000pt" viewBox="0 0 355.000000 355.000000"
 preserveAspectRatio="xMidYMid meet">
<metadata>
Created by potrace 1.14, written by Peter Selinger 2001-2017
</metadata>
<g transform="translate(0.000000,355.000000) scale(0.100000,-0.100000)"
fill="#000000" stroke="none">
<path d="M2307 3280 c-15 -5 -46 -25 -67 -44 -22 -20 -42 -36 -45 -36 -2 0
-16 11 -31 25 -34 31 -85 33 -125 4 -30 -21 -66 -81 -72 -119 -3 -19 -27 -52
-27 -37 0 12 -113 -35 -168 -70 -61 -39 -138 -116 -173 -175 -13 -22 -35 -53
-48 -70 -14 -17 -39 -60 -57 -96 l-33 -66 -93 -24 c-51 -12 -100 -25 -108 -27
-8 -2 -35 -10 -60 -17 -96 -25 -194 -64 -204 -81 -8 -12 -8 -22 0 -34 16 -27
169 -99 259 -124 44 -11 85 -25 90 -30 6 -4 12 -24 13 -43 5 -76 38 -138 117
-221 l35 -38 -44 -39 c-25 -21 -54 -54 -66 -72 -22 -36 -47 -111 -44 -136 3
-38 3 -38 42 -29 21 4 64 10 95 12 51 4 57 3 57 -15 0 -10 -26 -69 -57 -129
-54 -104 -58 -115 -57 -177 1 -37 8 -84 17 -105 16 -38 16 -38 -13 -70 -15
-18 -37 -42 -48 -55 -20 -23 -122 -223 -126 -245 -1 -7 -4 -16 -8 -22 -7 -12
6 -50 20 -59 5 -3 38 13 73 36 119 78 134 83 142 42 7 -40 -7 -77 -57 -153
-25 -38 -46 -75 -46 -83 0 -8 11 -28 25 -44 l25 -29 -22 -6 c-13 -3 -41 -1
-63 3 -22 5 -47 9 -55 10 -8 0 -24 9 -36 20 -12 10 -34 21 -50 24 -16 2 -40 7
-54 10 -14 3 -26 6 -27 6 -2 0 -21 4 -43 9 -25 6 -48 6 -59 0 -27 -15 -83 30
-140 115 -27 40 -47 75 -44 78 4 3 15 6 25 6 26 0 109 36 190 83 46 26 73 49
83 70 16 35 33 133 29 163 -2 11 -6 39 -9 64 -3 25 -8 52 -10 60 -2 8 -6 26
-9 40 -13 75 -106 283 -150 337 -8 10 -33 41 -55 69 -92 119 -243 207 -378
219 -43 4 -60 -2 -162 -53 -129 -64 -157 -92 -177 -178 -19 -85 -4 -201 45
-329 20 -52 88 -184 113 -220 16 -22 36 -51 46 -65 40 -60 148 -160 216 -200
75 -44 85 -60 57 -94 -5 -6 -7 -28 -4 -49 4 -30 1 -38 -14 -43 -96 -29 -124
-84 -74 -145 25 -30 27 -35 15 -58 -17 -33 -11 -40 101 -114 162 -107 385
-203 574 -248 190 -46 449 -61 641 -39 589 69 1111 418 1393 931 48 86 85 175
59 141 -9 -13 -31 -40 -49 -60 l-32 -37 -58 65 c-32 35 -77 84 -100 108 -50
50 -50 50 -37 114 9 43 9 142 0 193 -9 48 -50 122 -85 153 -28 24 -108 65
-129 65 -7 0 -11 8 -10 17 2 9 -4 25 -12 34 -8 10 -15 23 -16 30 -2 6 -5 20
-7 31 -3 11 -7 27 -9 35 -1 8 2 14 9 13 104 -21 387 -23 421 -4 45 24 25 50
-133 168 -229 172 -207 146 -210 241 -2 45 -6 85 -8 89 -3 5 -8 29 -12 53 -21
149 -70 262 -150 343 -32 32 -68 65 -82 74 -20 13 -23 21 -17 42 11 40 6 73
-15 95 -10 12 -21 41 -24 65 -9 68 -60 90 -144 62 -52 -17 -53 -17 -53 1 0 35
-29 76 -61 87 -18 6 -32 11 -33 10 -1 0 -14 -4 -29 -9z m-1731 -1555 c70 -50
134 -115 193 -195 22 -30 44 -59 48 -65 16 -19 73 -142 73 -157 0 -8 4 -18 9
-23 31 -34 49 -268 22 -285 -13 -7 -45 -6 -90 4 -128 29 -363 285 -375 411 -3
26 -13 52 -25 64 -11 11 -23 37 -28 58 -12 61 -7 185 10 225 l15 36 43 -15
c24 -8 71 -34 105 -58z"/>
</g>
</svg>
