<?xml version="1.0" encoding="UTF-8" standalone="yes"?>
<svg width="96" height="96" viewBox="0 0 32 32" fill="none" xmlns="http://www.w3.org/2000/svg">
  <g id="social-share-email" clip-path="url(#clip0_713_485)">
    <g id="social-share-email_2">
      <path id="background" d="M16 0C7.164 0 0 7.164 0 16C0 24.838 7.164 32 16 32C24.837 32 32 24.838 32 16C32 7.164 24.837 0 16 0Z" fill="#585858"/>
      <g id="email">
        <path id="email_2" fill-rule="evenodd" clip-rule="evenodd" d="M21.4642 21.4629H10.9642C9.99933 21.4629 9.21423 20.6785 9.21423 19.7142V12.7127C9.21423 11.7487 9.99933 10.9642 10.9642 10.9642H21.4642C22.4291 10.9642 23.2142 11.7487 23.2142 12.7127V19.7142C23.2142 20.6785 22.4291 21.4629 21.4642 21.4629ZM10.9642 11.8392C10.4817 11.8392 10.0892 12.2312 10.0892 12.7127V19.7142C10.0892 20.1959 10.4817 20.5879 10.9642 20.5879H21.4642C21.9468 20.5879 22.3392 20.1959 22.3392 19.7142V12.7127C22.3392 12.231 21.9468 11.8392 21.4642 11.8392H10.9642ZM15.9614 17.0081C16.037 17.0617 16.1256 17.0886 16.2142 17.0886C16.3028 17.0886 16.3914 17.0617 16.4671 17.0081L21.2796 13.5081C21.4769 13.3683 21.5235 13.0953 21.3837 12.8982C21.2442 12.7011 20.9714 12.6541 20.7739 12.7941L16.2142 16.1149L11.6546 12.7941C11.4571 12.6543 11.1843 12.7013 11.0447 12.8982C10.9052 13.0953 10.9518 13.3683 11.1489 13.5081L15.9614 17.0081ZM11.4017 19.7136C11.2897 19.7136 11.178 19.671 11.0924 19.5854C10.9216 19.4146 10.9216 19.1376 11.0924 18.9668L12.8424 17.2168C13.0133 17.046 13.2902 17.046 13.461 17.2168C13.6319 17.3876 13.6319 17.6646 13.461 17.8354L11.711 19.5854C11.6255 19.671 11.5137 19.7136 11.4017 19.7136ZM21.336 19.5854C21.2505 19.671 21.1387 19.7136 21.0267 19.7136C20.9147 19.7136 20.803 19.671 20.7174 19.5854L18.9674 17.8354C18.7966 17.6646 18.7966 17.3876 18.9674 17.2168C19.1383 17.046 19.4152 17.046 19.586 17.2168L21.336 18.9668C21.5069 19.1376 21.5069 19.4146 21.336 19.5854Z" fill="#FBFBFA"/>
      </g>
    </g>
  </g>
  <defs>
    <clipPath id="clip0_713_485">
      <rect width="32" height="32" fill="white"/>
    </clipPath>
  </defs>
</svg>