<?xml version="1.0" encoding="UTF-8" standalone="yes"?>
<svg width="96" height="96" viewBox="0 0 32 32" fill="none" xmlns="http://www.w3.org/2000/svg">
  <g id="social-share-twitter" clip-path="url(#clip0_706_435)">
    <g id="social-share-twitter_2">
      <path id="Vector" d="M16 0C7.164 0 0 7.164 0 16C0 24.838 7.164 32 16 32C24.837 32 32 24.838 32 16C32 7.164 24.837 0 16 0Z" fill="#0082E6"/>
      <path id="Vector_2" d="M22.362 12.7369C22.369 12.8779 22.372 13.0189 22.372 13.1609C22.372 17.4989 19.07 22.5009 13.032 22.5009C11.2478 22.5028 9.50081 21.9908 8 21.0259C8.258 21.0559 8.519 21.0709 8.783 21.0709C10.322 21.0709 11.736 20.5479 12.859 19.6669C12.1744 19.6535 11.5111 19.4267 10.9616 19.0182C10.4121 18.6096 10.0039 18.0397 9.794 17.3879C10.2856 17.4809 10.792 17.4614 11.275 17.3309C10.5325 17.1799 9.86495 16.777 9.38533 16.1905C8.90571 15.6039 8.64348 14.8696 8.643 14.1119V14.0709C9.09887 14.3242 9.60873 14.4648 10.13 14.4809C9.68025 14.1812 9.31161 13.7749 9.05688 13.2983C8.80215 12.8216 8.66924 12.2894 8.67 11.7489C8.67 11.1469 8.832 10.5829 9.114 10.0989C9.93811 11.1131 10.9664 11.9426 12.1321 12.5334C13.2978 13.1241 14.5748 13.463 15.88 13.5279C15.7674 13.0462 15.7652 12.5453 15.8734 12.0626C15.9817 11.5799 16.1977 11.1279 16.5052 10.7405C16.8128 10.353 17.2039 10.0401 17.6494 9.82508C18.095 9.61009 18.5833 9.49858 19.078 9.4989C20.021 9.4989 20.875 9.8969 21.474 10.5339C22.221 10.3879 22.924 10.1139 23.559 9.7369C23.3139 10.4976 22.8007 11.1434 22.115 11.5539C22.7656 11.4772 23.401 11.3033 24 11.0379C23.5597 11.6974 23.005 12.2728 22.362 12.7369Z" fill="white"/>
    </g>
  </g>
  <defs>
    <clipPath id="clip0_706_435">
      <rect width="32" height="32" fill="white"/>
    </clipPath>
  </defs>
</svg>